<?xml version="1.0" encoding="UTF-8"?>
<svg version="1.1" xmlns="http://www.w3.org/2000/svg" width="1024" height="1024">
<path d="M0 0 C337.92 0 675.84 0 1024 0 C1024 337.92 1024 675.84 1024 1024 C686.08 1024 348.16 1024 0 1024 C0 686.08 0 348.16 0 0 Z " fill="#010101" transform="translate(0,0)"/>
<path d="M0 0 C37.186875 -0.04125 74.37375 -0.0825 112.6875 -0.125 C124.42014404 -0.14320801 136.15278809 -0.16141602 148.2409668 -0.18017578 C162.59143066 -0.18920898 162.59143066 -0.18920898 169.31404114 -0.19088745 C173.99932253 -0.19274728 178.6845584 -0.20022855 183.36982727 -0.21115112 C189.35554361 -0.22491946 195.34119421 -0.228973 201.32692492 -0.22614455 C203.51782812 -0.22673558 205.70873373 -0.23067162 207.89962327 -0.23843026 C222.19247163 -0.28667396 235.59171055 0.16927971 249.3125 4.625 C250.51108643 5.0108728 250.51108643 5.0108728 251.73388672 5.40454102 C263.62426369 9.38801748 274.48454623 14.76151189 284 23 C284.99 23.721875 285.98 24.44375 287 25.1875 C298.79981797 35.21241499 305.90916483 50.92609845 307.28515625 66.15625 C307.72864721 82.04479568 303.57306751 97.06063151 293 109 C292.34128906 109.7528125 291.68257812 110.505625 291.00390625 111.28125 C283.41042399 119.41811906 274.22903901 124.80016786 264 129 C266.53067183 130.68711455 268.47944092 131.65574294 271.28125 132.69921875 C280.80797016 136.32425226 289.76799211 139.85307306 298 146 C298.845625 146.62648438 299.69125 147.25296875 300.5625 147.8984375 C317.85471859 161.23664269 330.84230476 179.02910749 335.56640625 200.625 C338.60235576 224.25617453 333.6524874 247.08617179 319 266.125 C317.37863204 268.13178781 315.70681138 270.06217115 314 272 C313.29359375 272.80566406 312.5871875 273.61132812 311.859375 274.44140625 C301.18734066 285.80514652 288.21274068 293.03513897 274 299 C272.87207031 299.48339844 271.74414062 299.96679688 270.58203125 300.46484375 C251.83411729 307.83409548 232.17007962 308.58236522 212.27783203 308.45410156 C209.78200804 308.45297015 207.28618272 308.45361266 204.7903595 308.45587158 C199.4665931 308.4567743 194.14307239 308.4456363 188.81937027 308.42292023 C181.12269185 308.39010051 173.42610767 308.379963 165.72936688 308.37496826 C153.23521367 308.36626195 140.74116625 308.33977464 128.24707031 308.30175781 C116.12630738 308.26491582 104.00557341 308.23666414 91.88476562 308.21972656 C90.75987068 308.21815022 90.75987068 308.21815022 89.61225058 308.21654204 C85.84923469 308.21132104 82.0862186 308.20626641 78.32320237 308.20129442 C47.21539138 308.159978 16.10771191 308.08935662 -15 308 C-14.04813307 306.88280721 -13.09531086 305.76642829 -12.14208984 304.65039062 C-11.61159027 304.02861938 -11.0810907 303.40684814 -10.53451538 302.76623535 C-6.19613902 297.77274112 -1.41833975 293.15087501 3.625 288.875 C8.47590137 284.72543377 12.90350173 280.14803493 17.36962891 275.59326172 C20.41308148 272.50801893 23.48728076 269.53640189 26.78125 266.71875 C32.13516894 262.10222824 37.04042633 257.03037656 42 252 C52.50584869 241.34416979 52.50584869 241.34416979 56.96875 237.53125 C62.45082077 232.84190229 67.43725106 227.63154074 72.5 222.5 C74.48650296 220.48650477 76.476576 218.47663278 78.46875 216.46875 C79.33951172 215.58638672 80.21027344 214.70402344 81.10742188 213.79492188 C83.29069261 211.63619759 85.56738315 209.61637873 87.890625 207.609375 C91.86445594 204.16345206 95.5884588 200.52413767 99.28125 196.78125 C99.93903442 196.11967896 100.59681885 195.45810791 101.27453613 194.77648926 C103.35217274 192.68677265 105.42650627 190.59382685 107.5 188.5 C110.2365815 185.736583 112.97662263 182.97666278 115.71875 180.21875 C116.63630066 179.28875183 116.63630066 179.28875183 117.5723877 178.33996582 C120.60478626 175.29071032 123.6881216 172.3636393 126.9453125 169.5546875 C131.21699644 165.8636208 135.18944672 161.92013293 139.15625 157.90625 C139.9028186 157.15589478 140.64938721 156.40553955 141.4185791 155.63244629 C143.78152025 153.2574008 146.1411737 150.87913183 148.5 148.5 C151.61160646 145.36160783 154.72663755 142.22667255 157.84375 139.09375 C158.89254333 138.03250916 158.89254333 138.03250916 159.96252441 136.9498291 C163.87406859 133.01912329 167.89543341 129.30166498 172.09436035 125.68078613 C175.06676591 123.05910577 177.8447362 120.26001331 180.625 117.4375 C181.21619629 116.84251709 181.80739258 116.24753418 182.41650391 115.63452148 C184.280165 113.75880343 186.14050842 111.87985097 188 110 C202.12933753 95.7159617 202.12933753 95.7159617 208.17578125 90.57519531 C211.75395975 87.48547266 215.12404333 84.18218718 218.5 80.875 C219.22703125 80.18535156 219.9540625 79.49570312 220.703125 78.78515625 C221.38890625 78.11097656 222.0746875 77.43679688 222.78125 76.7421875 C223.40064453 76.1426123 224.02003906 75.54303711 224.65820312 74.92529297 C226.40009486 72.42591921 226.42493814 70.98717108 226 68 C220.76037123 62.05231329 213.59560671 60.41679256 205.8749485 59.71657753 C202.42768523 59.59415882 198.99166903 59.5635158 195.54223633 59.56762695 C194.24340515 59.5574353 192.94457397 59.54724365 191.60638428 59.53674316 C188.08026564 59.50940145 184.5543082 59.49992013 181.02809739 59.49388909 C177.32984035 59.48444528 173.63170095 59.45823754 169.93351746 59.43388367 C162.94633702 59.39037899 155.95917963 59.36173397 148.97190541 59.33856028 C141.01042755 59.31142213 133.04906898 59.26751631 125.08767664 59.22227156 C108.72517844 59.1296552 92.36265879 59.05786972 76 59 C76.01106152 59.71046101 76.02212303 60.42092201 76.03351974 61.15291214 C76.29913035 78.48140289 76.49739353 95.80937332 76.62174606 113.13945389 C76.68348948 121.52047312 76.76758184 129.90012942 76.90527344 138.28027344 C77.02530257 145.58896676 77.10239572 152.89667274 77.12906194 160.20632434 C77.14463936 164.0733973 77.18093706 167.93764717 77.26876068 171.80381012 C77.85202487 198.49444607 77.85202487 198.49444607 71.81847 205.27274704 C69.38710846 207.48828198 66.79009427 209.26672923 64 211 C62.65645438 212.13221364 61.32743963 213.28261551 60.03125 214.46875 C59.40734375 215.00113281 58.7834375 215.53351563 58.140625 216.08203125 C53.04231399 220.65004348 48.30936934 225.63102797 43.5 230.5 C31.19242134 242.96010693 31.19242134 242.96010693 24.92626953 248.30078125 C21.00150968 251.76292682 17.36676368 255.53110879 13.6875 259.25 C12.89021484 260.05179688 12.09292969 260.85359375 11.27148438 261.6796875 C9.80180768 263.15801662 8.3331686 264.63737865 6.8659668 266.11816406 C6.25019775 266.73916992 5.63442871 267.36017578 5 268 C4.46479736 268.57717773 3.92959473 269.15435547 3.37817383 269.74902344 C2 271 2 271 0 271 C0 181.57 0 92.14 0 0 Z " fill="#FCFCFC" transform="translate(247,345)"/>
<path d="M0 0 C22.68068455 -0.07039285 45.36135083 -0.12313539 68.04212284 -0.15543652 C78.57556393 -0.17083979 89.10893675 -0.19180263 99.64233398 -0.22631836 C108.83393369 -0.25642268 118.02548391 -0.27562238 127.21713156 -0.28226548 C132.07432691 -0.2861425 136.9313808 -0.29511378 141.78853035 -0.31719017 C181.23326319 -0.48944527 181.23326319 -0.48944527 200 3 C200.77225481 3.14039515 201.54450962 3.28079029 202.34016609 3.42543983 C240.17674284 10.43056006 275.53859022 33.83148101 297.390625 65.39453125 C299.71449265 68.85932215 301.88184448 72.40656089 304 76 C304.52787109 76.88510254 304.52787109 76.88510254 305.06640625 77.78808594 C315.95192218 96.27538743 322.93930083 119.23257201 323.2734375 140.73046875 C323.29236557 141.83989838 323.29236557 141.83989838 323.31167603 142.97174072 C323.89670436 185.6626666 314.24576515 224.67733679 284.15185547 256.296875 C257.38464844 283.70183032 222.48796076 299.85651037 185 306 C184.00310591 306.17056852 183.00621181 306.34113705 181.97910881 306.51687431 C172.86178516 307.96630737 163.92809974 308.27398702 154.72314453 308.22705078 C153.14474495 308.22648506 151.56634484 308.22680635 149.98794556 308.22793579 C145.74919294 308.22850404 141.51055606 308.21683634 137.27183008 308.20278788 C132.82493348 308.19019144 128.37803352 308.18910305 123.93112183 308.18673706 C115.53089534 308.18054827 107.1307216 308.16417306 98.73051822 308.14403808 C89.15843632 308.1215976 79.58635175 308.11066526 70.01425004 308.10064721 C50.34280405 308.07980421 30.67140536 308.04467942 11 308 C13.71219559 305.28780441 16.94928851 304.2513373 20.4375 302.8125 C31.54653499 298.07683029 40.71442056 291.68516387 50 284 C50.83144531 283.36449219 51.66289063 282.72898437 52.51953125 282.07421875 C68.11314227 269.03452198 78.56359261 248.01914736 81 228 C83.04797935 199.46238297 74.98421435 176.16881296 56.390625 154.609375 C52.19024646 150.0246481 48.14422103 146.13270269 42.61328125 143.2109375 C33.9005829 138.48357249 33.9005829 138.48357249 32.27441406 133.99902344 C31.04537095 127.5302261 31.22208495 120.8313493 34.7734375 115.17578125 C36.2860246 113.61277458 37.8548331 112.10267452 39.46875 110.64453125 C42.68396933 107.28542093 44.50156764 103.72682595 46.5 99.5625 C46.83773437 98.86302246 47.17546875 98.16354492 47.5234375 97.44287109 C48.83742158 94.66083558 50.02641781 91.92074656 51 89 C69.48 89 87.96 89 107 89 C107 140.81 107 192.62 107 246 C165.54379511 247.62500704 165.54379511 247.62500704 215 223 C215.68578125 222.40832031 216.3715625 221.81664062 217.078125 221.20703125 C235.37526852 204.31458969 241.75279166 178.73166044 243.12890625 154.75390625 C243.77960315 129.72376538 236.79368803 105.90917199 220 87 C219.39671875 86.30261719 218.7934375 85.60523438 218.171875 84.88671875 C205.33713331 71.00039108 186.92493399 65.01765762 169 61 C168.36909077 60.8225528 167.73818153 60.64510561 167.08815384 60.46228123 C164.73654461 59.94167552 162.59967804 59.86034994 160.19110107 59.84178162 C159.22638885 59.8319928 158.26167664 59.82220398 157.26773071 59.81211853 C155.69032608 59.80348534 155.69032608 59.80348534 154.08105469 59.79467773 C152.96856354 59.78477814 151.85607239 59.77487854 150.70986938 59.76467896 C147.03055962 59.73307684 143.35123693 59.70831148 139.671875 59.68359375 C137.12168033 59.66302312 134.57148906 59.64202662 132.02130127 59.62062073 C125.99365862 59.57105515 119.96599849 59.52578689 113.938308 59.48259836 C107.0749532 59.43318264 100.21164571 59.37828061 93.3483367 59.32291877 C79.23226864 59.20917651 65.11615514 59.10232064 51 59 C50.59223076 57.76119331 50.59223076 57.76119331 50.17622375 56.49736023 C49.81812119 55.41501602 49.46001862 54.33267181 49.09106445 53.2175293 C48.73671829 52.14415817 48.38237213 51.07078705 48.01728821 49.96488953 C44.11352757 38.58736745 37.67249417 29.24944567 29 21 C28.4740625 20.40703125 27.948125 19.8140625 27.40625 19.203125 C19.89832805 10.99531202 10.17765487 6.21367877 0 2 C0 1.34 0 0.68 0 0 Z " fill="#FCFCFC" transform="translate(517,345)"/>
<path d="M0 0 C2.81081901 1.12170828 4.66929137 2.89973662 6.9387207 4.89868164 C12.40385787 9.60732278 18.09026041 13.96727096 23.8762207 18.27368164 C24.74021484 18.91772949 25.60420898 19.56177734 26.49438477 20.2253418 C28.19219749 21.49051098 29.8902697 22.75533202 31.58862305 24.01977539 C36.75494311 27.87546242 41.87489243 31.78399876 46.9387207 35.77368164 C47.73922852 36.39500977 48.53973633 37.01633789 49.36450195 37.65649414 C55.04188407 42.28558449 59.35635668 48.19642616 60.1418457 55.71899414 C60.32472697 64.22297292 58.17671453 71.26425684 52.78637695 77.92602539 C44.17288738 86.53951497 31.52783151 90.20919267 19.63993835 90.2713623 C18.53294083 90.2569812 17.4259433 90.2426001 16.28540039 90.2277832 C15.08395889 90.22836731 13.8825174 90.22895142 12.64466858 90.22955322 C9.3910662 90.22726515 6.13817727 90.20738574 2.88471508 90.17925739 C-0.53049862 90.1540316 -3.94573046 90.15188524 -7.36102295 90.14715576 C-13.81000296 90.13478751 -20.25870754 90.10205065 -26.70756698 90.0617578 C-34.0571222 90.01684689 -41.40669147 89.99500481 -48.75635004 89.97497606 C-63.85814585 89.9333114 -78.95968485 89.863081 -94.0612793 89.77368164 C-94.0612793 86.77368164 -94.0612793 86.77368164 -92.1550293 84.53930664 C-91.2990918 83.70915039 -90.4431543 82.87899414 -89.5612793 82.02368164 C-88.7259668 81.20383789 -87.8906543 80.38399414 -87.0300293 79.53930664 C-84.8156707 77.43905845 -82.52899438 75.43812096 -80.2175293 73.44555664 C-75.96241288 69.74694034 -72.00744735 65.79692329 -68.0612793 61.77368164 C-63.47125779 57.09401128 -58.8100299 52.61092337 -53.8425293 48.33227539 C-51.64427882 46.40880622 -49.59472778 44.36969777 -47.5612793 42.27368164 C-44.25361188 38.86423984 -40.76453462 35.74959417 -37.18041992 32.63891602 C-33.72850788 29.60059713 -30.39910849 26.43614743 -27.0612793 23.27368164 C-26.337229 22.59313721 -25.61317871 21.91259277 -24.8671875 21.21142578 C-21.05845159 17.6286493 -17.27971034 14.02013921 -13.54174805 10.36352539 C-12.82051758 9.66614258 -12.09928711 8.96875977 -11.35620117 8.25024414 C-9.97388426 6.91276605 -8.60108004 5.56537072 -7.23901367 4.20727539 C-6.61704102 3.60915039 -5.99506836 3.01102539 -5.35424805 2.39477539 C-4.8130835 1.86295654 -4.27191895 1.3311377 -3.71435547 0.78320312 C-2.0612793 -0.22631836 -2.0612793 -0.22631836 0 0 Z " fill="#040404" transform="translate(447.061279296875,501.226318359375)"/>
</svg>
